<svg width="27" height="27" viewBox="0 0 27 27" fill="none" xmlns="http://www.w3.org/2000/svg">
<rect x="0.5" y="0.5" width="26" height="26" rx="13" fill="#C10C01"/>
<rect x="0.5" y="0.5" width="26" height="26" rx="13" stroke="#FFEFD6"/>
<path d="M13.243 18.9259C12.5233 18.9259 11.8819 18.8623 11.3189 18.735C10.7559 18.6126 10.2467 18.4143 9.79141 18.1402C9.33609 17.8611 8.9787 17.4768 8.71922 16.9872C8.45974 16.4927 8.31286 15.9003 8.27859 15.21C8.27859 15.0533 8.35693 14.975 8.51359 14.975H12.0092C12.0973 14.975 12.161 14.9848 12.2002 15.0044C12.2442 15.024 12.2687 15.068 12.2736 15.1366V15.1513C12.3128 15.4646 12.3984 15.7045 12.5306 15.8709C12.6677 16.0374 12.8807 16.1206 13.1695 16.1206C13.429 16.1206 13.6322 16.0447 13.7791 15.893C13.9308 15.7363 14.0067 15.538 14.0067 15.2981C14.0067 15.1023 13.9724 14.9358 13.9039 14.7988C13.8403 14.6568 13.7619 14.5491 13.6689 14.4756C13.5759 14.4022 13.4559 14.3459 13.3091 14.3067C13.1622 14.2627 13.03 14.2357 12.9125 14.2259C12.795 14.2161 12.6555 14.2113 12.4939 14.2113H12.1708C11.9798 14.2113 11.8477 14.1549 11.7742 14.0423C11.7057 13.9297 11.6714 13.7559 11.6714 13.5209V13.0509C11.6714 12.6446 11.6983 12.3459 11.7522 12.155C11.806 11.9592 11.9113 11.8613 12.068 11.8613H12.6555C13.0471 11.8613 13.3507 11.7829 13.5661 11.6263C13.7815 11.4647 13.8892 11.1611 13.8892 10.7156C13.8892 10.5002 13.828 10.3215 13.7056 10.1795C13.5832 10.0376 13.4192 9.96656 13.2136 9.96656C12.8219 9.96656 12.5869 10.1477 12.5086 10.51V10.8038C12.4596 11.0094 12.3519 11.1465 12.1855 11.215C11.1573 11.215 10.232 11.1954 9.40953 11.1563C9.37036 11.1563 9.30672 11.1587 9.21859 11.1636C9.13536 11.1685 9.07172 11.1709 9.02766 11.1709C8.64578 11.1709 8.45484 11.0779 8.45484 10.8919C8.52828 10.1967 8.58703 9.75849 8.63109 9.57734C8.76818 9.00943 9.06437 8.54432 9.51969 8.18203C9.65677 8.06943 9.81099 7.96417 9.98234 7.86625C10.4817 7.5725 11.0447 7.38156 11.6714 7.29344C12.303 7.20531 13.0324 7.16125 13.8598 7.16125C14.227 7.16125 14.6016 7.20042 14.9834 7.27875C15.3653 7.35708 15.7447 7.48193 16.1217 7.65328C16.4987 7.82464 16.8316 8.03026 17.1205 8.27016C17.4142 8.51005 17.6517 8.8087 17.8328 9.16609C18.014 9.52349 18.1045 9.91271 18.1045 10.3338C18.1045 10.7107 18.0531 11.0412 17.9503 11.3252C17.8524 11.6042 17.708 11.8319 17.517 12.0081C17.3261 12.1844 17.1327 12.3264 16.9369 12.4341C16.741 12.5369 16.5085 12.6299 16.2392 12.7131C16.9981 12.9481 17.5391 13.2737 17.8622 13.6898C18.1902 14.106 18.3542 14.6323 18.3542 15.2688C18.3542 15.7192 18.2881 16.1304 18.1559 16.5025C18.0237 16.8697 17.8524 17.1781 17.6419 17.4278C17.4362 17.6775 17.1817 17.8954 16.8781 18.0814C16.5795 18.2674 16.2808 18.4119 15.9822 18.5147C15.6835 18.6224 15.358 18.7081 15.0055 18.7717C14.653 18.8354 14.3421 18.877 14.0728 18.8966C13.8035 18.9161 13.5269 18.9259 13.243 18.9259Z" fill="#FFEFD6"/>
</svg>
