<svg preserveAspectRatio="none" overflow="visible" style="display: block;" width="1200" height="284" viewBox="0 0 1200 284" fill="none" xmlns="http://www.w3.org/2000/svg">
<g id="IMG_1972 5 1 [Vectorized]">
<path id="Vector" d="M69.8068 25.1109L98.243 25.0745L98.2254 34.9983L108.368 34.9243L108.397 44.3211L118.872 44.2854L118.886 72.9911L141.22 72.9573C141.136 75.2367 140.72 78.2221 141.978 79.9751C144.568 81.6914 144.714 79.42 146.247 81.3136C146.882 84.9215 145.859 88.9773 146.962 90.5525C148.677 91.5155 149.266 91.4664 151.18 91.4983C152.896 89.6103 152.453 87.153 152.387 84.3885L152.333 82.4729C157.481 82.4637 167.013 82.7145 171.806 82.2576C171.754 80.0095 171.397 76.5395 172.418 74.7086C175.089 72.3047 177.277 74.5209 177.696 69.7039C177.834 68.1189 177.69 65.7064 177.642 64.065L188.462 64.0153L188.584 74.4816L197.963 74.3663C197.896 76.7082 197.442 80.9308 198.53 82.7287C199.721 83.7285 201.287 83.4426 202.853 83.3831L203.539 82.7777C204.1 75.4023 203.849 61.1409 203.589 53.3656L211.521 53.3439L211.547 45.4726L221.43 45.4268L221.527 54.0764L229.998 54.0188C229.942 61.0361 229.8 68.1729 230.033 75.1888C230.074 76.4027 229.983 77.7688 231.327 78.2282C237.354 77.6657 243.424 78.7281 249.43 78.0037C251.535 77.7491 251.123 75.4385 251.384 73.3843C253.479 72.612 274.168 72.9432 278.073 72.9622C277.895 70.6927 277.921 67.2945 277.865 64.9305C292.312 65.2274 307.611 64.4349 321.918 65.1489C323.406 66.8338 321.843 67.7564 323.241 69.8352C329.448 70.5602 342.101 70.0799 348.802 70.01L348.773 77.9503C357.72 78.0712 366.669 78.0847 375.616 77.9908L375.571 87.8811C381.557 88.1357 387.673 87.4978 393.679 87.9603C396.512 88.178 394.323 90.0765 395.853 91.9749C402.185 92.4822 412.885 92.0712 419.542 92.0166L419.527 101.104C440.406 101.206 461.285 101.189 482.164 101.051L482.164 93.117C494.231 93.1821 506.297 93.1569 518.362 93.0428L518.445 102.011C525.598 102.171 533.097 102.042 540.278 102.023L540.256 110.93C552.067 111.203 564.746 110.985 576.613 110.978L576.702 118.719C589.4 118.776 602.443 118.999 615.111 118.542L615.422 130.044L648.141 130.072L648.217 138.093L681.709 138.065L681.967 143.459C705.838 143.998 732.053 143.643 756.035 143.443L756.229 136.466C758.42 136.584 761.086 136.589 763.295 136.525C781.119 136.011 799.793 137.465 817.523 136.352L817.699 129.418L838.629 129.391C838.799 126.592 838.723 123.556 838.705 120.735C847.57 119.892 859.887 120.965 869.607 120.396L869.725 110.031C876.51 110.179 883.301 110.143 890.086 109.921L890.045 101.174L919.576 101.116L919.447 92.0387L944.648 92.0859L944.596 84.5369C949.184 84.5394 954.229 84.6516 958.758 84.2836C961.078 82.7918 958.688 82.3391 960.457 79.3863C963.434 78.6993 973.781 79.0618 977.531 79.0937L977.637 72.9831L1001.34 72.9193L1001.4 63.0756C1008.43 63.0713 1015.49 63.5056 1022.54 63.1639C1028.23 62.8885 1024.19 61.6114 1026.56 58.9157C1030.9 58.6362 1068.07 58.3857 1069.51 59.2262C1069.68 60.5379 1069.85 61.4943 1070.14 62.783C1071.44 63.3338 1077 63.1106 1078.73 63.1001L1078.79 54.0201L1086.38 54.0385L1086.49 44.3314C1090 44.3858 1093.76 44.511 1097.24 44.4366L1097.5 53.3012L1103.98 53.3251L1104.02 64.103L1117.42 63.946L1117.41 71.9974C1123.21 72.0655 1138.44 71.6171 1143.12 72.3746C1144.69 75.1183 1142.61 74.7987 1144.34 77.0125C1147.17 77.183 1153.94 77.7804 1156.35 76.7364C1157.07 74.0068 1155.92 74.0222 1157.35 73.0708C1161.88 72.9763 1166.34 72.8322 1170.87 73.0972C1171.71 74.5589 1171.45 76.8652 1171.41 78.6582C1173.9 79.0465 1193.48 76.8603 1200 77.1419V265.518C1170.48 266.719 1139.27 266.31 1109.55 266.98L967.764 269.883L924.387 270.735C917.232 270.942 909.896 271.722 902.801 271.686C889.98 271.622 877.512 270.786 864.627 270.683L753.973 270.617L0 268.842V65.0139L35.206 64.9655L35.3152 53.3507L43.0192 53.3337C42.9167 50.3647 43.0573 47.2555 43.1421 44.2765C46.1325 44.3916 49.1247 44.4481 52.117 44.4461L52.0181 34.9844C55.4601 35.0327 67.8193 35.479 69.999 34.3425C69.8689 31.202 69.7324 28.2617 69.8068 25.1109Z" fill="#033211"/>
<path id="Vector_2" d="M1001.4 63.0756C1008.43 63.0713 1015.49 63.5056 1022.54 63.1639C1028.23 62.8885 1024.19 61.6114 1026.56 58.9157C1030.9 58.6362 1068.07 58.3857 1069.51 59.2262C1069.68 60.5379 1069.85 61.4943 1070.14 62.783C1071.44 63.3338 1077 63.1106 1078.73 63.1001C1078.79 67.8245 1079.26 80.0586 1078.41 83.9021C1075.86 85.4987 1076.01 83.4218 1074.09 85.2718C1073.38 93.1336 1075.18 113.217 1073.16 118.417L1072.42 119.046C1070.89 118.76 1070.14 118.375 1069.25 116.984C1067.89 114.868 1068.73 87.618 1068.71 82.5544L1058.73 82.6115L1058.72 64.998L1047.67 65.0029L1047.72 83.442L1041.09 83.5451C1041.08 92.8981 1041.3 103.344 1041 112.608L1031.48 112.657C1031.52 121.492 1031.37 131.076 1031.63 139.847C1033.81 139.798 1037.12 139.377 1038.76 140.629C1039.45 142.107 1039.07 143.636 1038.86 145.293C1036.95 146.599 1028.74 146.083 1025.89 146.03L1025.82 138.082L1016.27 138.086L1016.19 129.483L1004.88 129.493L1004.77 120.675C998.906 120.642 992.906 120.684 987.059 120.406L987.152 131.927C984.979 131.867 981.568 131.467 979.828 132.575C975.873 137.385 980.807 138.439 970.904 138.025L970.893 157.584L961.6 157.649C948.779 157.781 954.803 154.705 951.029 151.303C948.773 149.264 934.746 151.693 929.936 151.496C929.848 162.322 929.83 173.149 929.871 183.975L898.33 184.077L898.16 197.525C895.523 197.477 891.557 197.182 889.16 198.005L888.082 199.466C885.205 200.189 870.955 199.604 867.164 199.529L830.771 199.042L575.207 196.698C549.949 196.631 524.691 196.829 499.437 197.294C494.617 197.413 489.333 197.403 484.581 197.697C477.959 198.107 472.536 199.387 465.807 198.76C462.831 197.944 458.217 198.111 454.995 198.096C453.765 185.254 452.088 187.867 440.769 188.395C440.659 183.342 440.266 179.78 439.645 174.748C434.746 175.067 429.93 175.037 425.027 175.047C424.913 171.499 424.571 167.983 424.263 164.449C418.039 164.43 395.834 163.404 391.536 164.561C390.602 165.888 390.861 169.139 390.858 170.954C378.452 171.084 367.624 169.914 355.697 169.913L355.638 156.477L344.746 156.495L344.535 147.227L344.565 127.531L331.273 127.58L331.042 120.658L319.376 120.59L319.321 112.681C309.776 112.46 300.229 112.447 290.684 112.64L290.673 121.437L277.842 121.448L277.89 129.186C271.929 129.692 264.876 129.457 258.821 129.411L258.728 138.963C256.71 138.951 254.127 138.653 252.568 139.852C251.552 141.55 251.897 144.848 251.941 146.992L243.503 147.124C243.498 149.528 243.762 154.416 242.845 156.371C235.268 161.684 245.641 164.819 232.539 164.451C230.689 147.157 231.026 125.741 230.238 108.12C229.987 102.522 229.572 83.8726 230.348 78.9226L231.327 78.2282C237.354 77.6657 243.424 78.7281 249.43 78.0037C251.535 77.7491 251.123 75.4385 251.384 73.3842C253.479 72.612 274.168 72.9432 278.073 72.9622C277.895 70.6927 277.921 67.2945 277.865 64.9305C292.312 65.2274 307.611 64.4349 321.918 65.1489C323.406 66.8338 321.843 67.7564 323.241 69.8352C329.448 70.5602 342.101 70.0799 348.802 70.01L348.773 77.9503C357.72 78.0712 366.669 78.0847 375.616 77.9908L375.571 87.8811C381.557 88.1357 387.673 87.4978 393.679 87.9603C396.512 88.178 394.323 90.0765 395.853 91.9749C402.185 92.4822 412.885 92.0712 419.542 92.0166L419.527 101.104C440.406 101.206 461.285 101.189 482.164 101.051L482.164 93.117C494.231 93.1821 506.297 93.1569 518.362 93.0428L518.445 102.011C525.598 102.171 533.097 102.042 540.278 102.023L540.256 110.93C552.067 111.203 564.746 110.985 576.613 110.978L576.702 118.719C589.4 118.776 602.443 118.999 615.111 118.542L615.422 130.044L648.141 130.072L648.217 138.093L681.709 138.065L681.967 143.459C705.838 143.998 732.053 143.643 756.035 143.443L756.229 136.466C758.42 136.584 761.086 136.589 763.295 136.525C781.119 136.011 799.793 137.465 817.523 136.352L817.699 129.418L838.629 129.391C838.799 126.592 838.723 123.556 838.705 120.735C847.57 119.892 859.887 120.965 869.607 120.396L869.725 110.031C876.51 110.179 883.301 110.143 890.086 109.921L890.045 101.174L919.576 101.116L919.447 92.0387L944.648 92.0859L944.596 84.5369C949.184 84.5394 954.229 84.6516 958.758 84.2836C961.078 82.7918 958.688 82.3391 960.457 79.3863C963.434 78.6993 973.781 79.0618 977.531 79.0937L977.637 72.9831L1001.34 72.9193L1001.4 63.0756Z" fill="#AF7601"/>
<path id="Vector_3" d="M414.136 139.953C423.778 139.81 452.817 139.381 461.65 140.411L461.672 148.43C467.679 148.466 475.207 148.271 481.029 149.232L481.206 156.438C487.883 156.355 494.555 156.805 501.165 157.784L501.4 165.499C508.053 165.639 520.001 166.623 525.811 166.104L526.366 157.987C539.81 157.3 554.506 157.564 568.037 157.548C575.371 157.54 589.74 157.23 596.514 158.221L596.66 166.449C601.728 167.09 608.777 168.198 613.723 168.111L615.451 174.818C625.342 174.589 632.684 176.601 641.186 176.537L698.865 175.965C709.019 175.959 720.979 175.665 730.916 176.807C731.689 173.768 732.357 171.319 732.727 168.172C757.564 170.928 787.769 169.611 813.029 169.859C821.842 169.945 829.014 171.159 837.662 169.622C839.461 165.355 840.439 161.035 841.271 156.457C851.338 156.367 861.393 156.21 871.453 155.987L871.74 164.481L884.074 164.342L884.021 156.44C896.514 156.436 909.504 156.614 921.955 156.379C922.529 153.641 923.109 150.579 923.754 147.886C935.467 147.906 946.57 147.072 958.547 147.182C958.166 149.84 957.111 154.47 958.26 156.64C959.361 157.501 960.252 157.491 961.6 157.649C948.779 157.781 954.803 154.705 951.029 151.303C948.773 149.264 934.746 151.693 929.935 151.496C929.848 162.322 929.83 173.149 929.871 183.975L898.33 184.077L898.16 197.525C895.523 197.477 891.557 197.182 889.16 198.005L888.082 199.466C885.205 200.189 870.955 199.604 867.164 199.529L830.771 199.042L575.207 196.698C549.949 196.631 524.691 196.829 499.437 197.294C494.617 197.413 489.333 197.403 484.581 197.697C477.959 198.107 472.536 199.387 465.807 198.76C462.831 197.944 458.217 198.111 454.995 198.096C453.765 185.254 452.088 187.867 440.769 188.395C440.659 183.342 440.266 179.78 439.645 174.748C434.746 175.067 429.93 175.037 425.027 175.047C424.913 171.499 424.571 167.983 424.263 164.449C418.039 164.43 395.834 163.404 391.536 164.561C390.602 165.888 390.861 169.139 390.858 170.954C378.452 171.084 367.624 169.914 355.697 169.913L355.638 156.477L344.746 156.495L344.535 147.227C344.855 147.517 345.243 147.868 345.699 148.281C355.089 148.888 368.385 148.493 377.402 148.388L378.087 140.122C381.445 140.502 385.755 141.103 389.043 141.096L389.012 148.422C397.267 148.5 405.824 149.695 413.587 149.678L414.136 139.953Z" fill="#626E00"/>
<path id="Vector_4" d="M465.807 198.76C472.536 199.387 477.959 198.107 484.581 197.697C489.333 197.403 494.617 197.413 499.437 197.294C524.691 196.829 549.949 196.631 575.207 196.698L830.771 199.042L867.164 199.529C870.955 199.604 885.205 200.189 888.082 199.466C888.199 202.283 888.357 205.147 888.293 207.963L870.691 207.987L870.685 216.516L857.25 216.502L857.285 236.909L817.869 236.908C814.195 236.903 801.129 236.69 798.07 237.238L798.094 247.593L765.187 247.458L765.193 257.533C758.982 257.606 749.871 258.07 744 257.034C741.059 252.715 737.859 253.81 733.119 253.971V244.97L720.721 245.077L720.691 236.997L679.225 237.011L679.113 244.054C676.008 244.006 666.393 243.495 664.23 244.632C664.066 245.788 663.908 246.946 663.768 248.105C661.582 249.246 658.371 247.688 656.467 248.799C656.191 250.239 656.285 252.527 655.617 252.683C650.854 253.795 639.967 252.993 635.25 253.021L635.291 244.043L621.035 244.07V236.07L583.283 236.089L583.307 243.003C577.938 243.065 567.971 243.417 562.995 242.854C561.871 241.597 562.254 240.535 562.189 238.364C560.909 236.388 560.976 236.607 558.471 235.749C557.457 233.701 557.873 228.131 557.931 225.528L540.267 225.573L540.228 217.545L527.415 217.602L527.396 209.02C520.41 209.014 496.84 208.576 491.746 209.429C490.815 210.975 491.103 213.964 491.13 215.917L465.852 215.976L465.807 198.76Z" fill="#033211"/>
<path id="Vector_5" d="M1086.49 44.3314C1090 44.3858 1093.76 44.511 1097.24 44.4366L1097.5 53.3012L1103.98 53.3251L1104.02 64.103C1104.04 70.0468 1103.88 77.1419 1104.21 82.9949C1106.43 83.293 1108.68 83.2598 1110.01 84.9448C1110.38 89.6569 1111.14 108.657 1110.59 112.918L1109.58 113.496C1108.89 116.694 1109.78 119.59 1108.65 121.166C1106.13 121.956 1104.33 120.616 1102.93 123.136C1102.39 124.099 1102.48 128.097 1102.46 129.405L1092.16 129.43L1092.13 137.982L1083.08 137.978C1083.02 146.229 1082.88 154.72 1083.06 162.946L1074.51 163.006C1074.6 160.927 1074.98 158.323 1073.84 156.705C1071.4 154.781 1066.88 155.946 1063.51 155.919L1063.48 165.48C1058.31 165.5 1052.88 165.616 1047.75 165.502L1047.62 174.803C1041.79 174.961 1035.94 174.998 1030.11 174.915L1030.09 166.241C1021.65 166.566 1013.21 166.674 1004.78 166.564L1004.8 177.914L987.117 177.946L987.07 189.457L969.838 189.529L969.92 199.443C966.158 199.695 962.145 200.034 958.395 200.03L958.482 214.603C950.197 214.843 941.719 215.187 933.445 214.984L933.141 207.941L921.146 208.005L921.123 218.432L910.23 218.455L910.172 227.987L900.182 228.067L900.193 236.782L882.498 236.929C882.492 243.528 882.662 251.513 882.258 257.963L857.947 258.204C857.853 251.286 857.801 244.367 857.783 237.448L818.361 237.5C813.838 237.504 802.131 237.768 798.07 237.238C801.129 236.69 814.195 236.903 817.869 236.908L857.285 236.909L857.25 216.502L870.686 216.516L870.691 207.987L888.293 207.963C888.357 205.147 888.199 202.283 888.082 199.466L889.16 198.005C891.557 197.182 895.523 197.477 898.16 197.525L898.33 184.077L929.871 183.975C929.83 173.149 929.848 162.322 929.936 151.496C934.746 151.693 948.773 149.264 951.029 151.303C954.803 154.705 948.779 157.781 961.6 157.649L970.893 157.584L970.904 138.025C980.807 138.439 975.873 137.385 979.828 132.575C981.568 131.467 984.978 131.867 987.152 131.927L987.059 120.406C992.906 120.684 998.906 120.642 1004.77 120.675L1004.88 129.493L1016.19 129.483L1016.27 138.086L1025.82 138.082L1025.89 146.03C1028.74 146.083 1036.95 146.599 1038.86 145.293C1039.07 143.636 1039.45 142.107 1038.76 140.629C1037.12 139.377 1033.81 139.798 1031.63 139.847C1031.37 131.076 1031.52 121.492 1031.48 112.657L1041 112.608C1041.3 103.344 1041.08 92.8981 1041.09 83.5451L1047.72 83.442L1047.67 65.0029L1058.72 64.998L1058.73 82.6115L1068.71 82.5544C1068.73 87.618 1067.89 114.868 1069.25 116.984C1070.14 118.375 1070.89 118.76 1072.42 119.046L1073.16 118.417C1075.18 113.217 1073.38 93.1336 1074.09 85.2718C1076.01 83.4218 1075.86 85.4987 1078.41 83.9021C1079.26 80.0586 1078.79 67.8245 1078.73 63.1001L1078.79 54.0201L1086.38 54.0385L1086.49 44.3314Z" fill="#626E00"/>
<path id="Vector_6" d="M290.684 112.64C300.229 112.447 309.776 112.46 319.321 112.681L319.376 120.59L331.042 120.658L331.273 127.58L344.565 127.531L344.535 147.227L344.746 156.495L355.638 156.477L355.697 169.913C367.624 169.914 378.452 171.084 390.858 170.954C390.861 169.139 390.602 165.888 391.536 164.561C395.834 163.404 418.039 164.43 424.263 164.449C424.571 167.983 424.913 171.499 425.027 175.047C429.93 175.037 434.746 175.067 439.645 174.748C440.266 179.78 440.659 183.342 440.769 188.395C452.088 187.867 453.765 185.254 454.995 198.096C458.217 198.111 462.831 197.944 465.807 198.76L465.852 215.976L491.13 215.917C491.103 213.964 490.815 210.975 491.746 209.429C496.84 208.576 520.41 209.014 527.396 209.02L527.415 217.602L540.228 217.545L540.267 225.573L557.931 225.528C557.873 228.131 557.457 233.701 558.471 235.749C560.976 236.607 560.909 236.388 562.189 238.364C562.254 240.535 561.871 241.598 562.995 242.854C567.971 243.417 577.938 243.065 583.307 243.003C583.212 245.022 583.535 245.527 582.455 246.824C575.308 247.435 562.838 246.991 555.369 246.978L505.575 246.97L505.574 237.97L474.495 237.978L474.44 245.926L444.855 245.939L444.856 225.448L435.908 225.417L435.896 215.934L412.985 215.868L412.939 225.439L400.991 225.497L400.913 216.474L390.909 216.506L390.948 198.014L379.068 198.09L379.078 187.501C370.199 187.638 361.05 187.522 352.148 187.525L352.157 198.868L340.334 199.058V208.952L328.359 209.012L328.431 216.477L319.397 216.505L319.324 206.95L307.459 206.883L307.508 196.522L320.351 196.423L320.392 174.87L307.512 174.914L307.531 164.437L294.11 164.413L294.149 144.878L281.228 145.014C281.266 140.651 281.713 134.741 280.972 130.72C279.788 129.081 280.215 129.53 277.89 129.186L277.842 121.448L290.673 121.437L290.684 112.64Z" fill="#345A65"/>
<path id="Vector_7" d="M69.8068 25.1109L98.243 25.0745L98.2254 34.9983L108.368 34.9243L108.397 44.3211L118.872 44.2854L118.886 72.9911L141.22 72.9573C141.136 75.2367 140.72 78.2221 141.978 79.9751C144.568 81.6914 144.714 79.42 146.247 81.3136C146.882 84.9215 145.859 88.9773 146.962 90.5525C148.677 91.5155 149.266 91.4664 151.18 91.4983C152.896 89.6103 152.453 87.153 152.387 84.3885L152.333 82.4729C157.481 82.4637 167.013 82.7145 171.806 82.2576C171.754 80.0095 171.397 76.5395 172.418 74.7086C175.089 72.3047 177.277 74.5209 177.696 69.7039C177.834 68.1189 177.69 65.7064 177.642 64.065L188.462 64.0153L188.584 74.4816L197.963 74.3663C197.896 76.7082 197.442 80.9308 198.53 82.7286C199.721 83.7285 201.287 83.4426 202.853 83.3831L203.539 82.7777C204.1 75.4023 203.849 61.1409 203.589 53.3656L211.521 53.3439L211.547 45.4726L221.43 45.4268L221.527 54.0764L229.998 54.0188C229.942 61.0361 229.8 68.1729 230.033 75.1888C230.074 76.4027 229.983 77.7688 231.327 78.2282L230.348 78.9226C229.572 83.8726 229.987 102.522 230.238 108.12C231.026 125.741 230.689 147.157 232.539 164.451L223.361 164.393L223.294 154.947L212.515 154.952L212.497 145.953L189.527 145.926L189.562 130.06L173.391 130.01L173.384 110.918C161.88 110.862 150.377 110.897 138.874 111.023L138.819 119.461C132.405 119.651 125.379 119.512 118.917 119.512L118.89 99.9772C114.454 99.9907 94.8738 100.989 92.6906 98.8363C92.6877 96.1999 92.3678 96.7986 93.5478 94.6297C95.8564 93.2968 100.716 93.8482 103.673 93.8807L103.621 81.4743L81.6439 81.492L81.6023 73.5529L72.0814 73.5137C72.2221 61.2045 71.966 47.9131 71.2424 35.6048C71.2424 35.6048 70.1185 34.4637 69.999 34.3425C69.8689 31.202 69.7324 28.2617 69.8068 25.1109Z" fill="#626E00"/>
<path id="Vector_8" d="M1104.02 64.103L1117.42 63.946L1117.41 71.9974C1123.21 72.0655 1138.44 71.6171 1143.12 72.3746C1144.69 75.1183 1142.61 74.7987 1144.34 77.0125C1147.17 77.183 1153.94 77.7804 1156.35 76.7364C1157.07 74.0068 1155.92 74.0222 1157.35 73.0708C1161.88 72.9763 1166.34 72.8322 1170.87 73.0972C1171.71 74.5589 1171.45 76.8652 1171.41 78.6582C1158.8 78.5398 1152.94 81.8447 1142.75 81.5055L1142.68 91.4443L1131.83 91.4363C1131.86 93.8733 1132.29 101.731 1131.26 103.334C1125.16 104.545 1130.12 107.237 1127.75 110.823C1126.14 111.227 1125.83 111.261 1124.24 110.804C1123.31 109.077 1123.55 105.714 1123.54 103.591L1114.17 103.493C1114.31 108.357 1115.6 111.735 1110.59 112.918C1111.14 108.657 1110.38 89.6569 1110.01 84.9448C1108.68 83.2598 1106.43 83.293 1104.21 82.9949C1103.88 77.1419 1104.04 70.0468 1104.02 64.103Z" fill="#AF7601"/>
</g>
</svg>
